<svg id="Calque_1" xmlns="http://www.w3.org/2000/svg" viewBox="0 358 595.3 125.9"><style>.st0{fill:#FFED72;} .st1{fill:#EC7423;} .st2{fill:#FDC914;}</style><path class="st0" d="M161.6 408.1c0 .2.1.5.1.7 0-.3 0-.5-.1-.7zM426.9 396.2c-5.6-4-12.2-6.5-18.7-8.6-20.8-6.8-43.1-9.6-64.8-11.4-27.9-2.3-56.1-2.4-84-.4-22.5 1.6-45.2 4.3-66.9 10.7-7.2 2.1-14.5 4.7-21 8.5-3.8 2.3-8.2 5.4-9.6 9.8-.3 1.1-.4 2.2-.3 3.2-.1-1.4.2-2.9 1-4.4.7-1.2 1.7-2.2 2.8-3.1l1.8-1.2c.2-.1.5-.3.7-.4.1-.1.3-.1.4-.2 2.7-1.5 5.6-2.4 8.8-3.1 4.9-1.2 10.1-1.8 15.1-2.1 19.9-1.3 40.1.7 59.8 3.8 8 1.2 16 2.6 24 4.3.4.1.8.2 1.2.2.4.1.8.2 1.2.2 15 3.2 29.8 7 44.3 11.6 16 5 32.2 10.8 47 19.1l-1.4.2 1.4-.2c.2.1.4.2.7.4.2.1.4.2.5.3.1.1.2.1.3.2 8.3-1.3 17-2.9 25.1-5 7.9-2 15.8-4.4 23.2-8 2.1-1 4.2-2.1 6.2-3.5 1.4-.9 2.6-1.9 3.8-3 1-1 1.9-2 2.6-3.2.6-1.1 1.1-2.1 1.4-3.3.1-.5.2-1.1.2-1.6 0-4.2-3.5-7.5-6.8-9.8z"/><path class="st1" d="M195 433.9l.8-.8c.3-.3.5-.5.8-.7.7-.6 1.4-1.2 2-1.7l1.5-1.2c.4-.3.7-.5 1.1-.8.4-.2.7-.5 1.1-.7 4.2-2.9 8.8-5.2 13.4-7.4 17.9-8.3 37.3-13.7 56.5-18l2.3.5h-.1.2c11.2 2.3 22.4 5.1 33.4 8.1 18.6 5.2 37.1 11.5 54.4 20.1 1.3.6 2.5 1.3 3.8 2l3.6-.5c-14.8-8.3-31-14.1-47-19.1-14.5-4.6-29.3-8.4-44.3-11.6-.4-.1-.8-.2-1.2-.2-.4-.1-.8-.2-1.2-.2-8-1.6-15.9-3.1-24-4.3-19.7-3-39.9-5.1-59.8-3.8-5 .3-10.2.9-15.1 2.1-3.1.6-6.1 1.6-8.8 3.1-.1.1-.3.1-.4.2-.9.5-1.7 1-2.5 1.6-1.2.9-2.1 1.9-2.8 3.1-1 1.7-1.2 3.4-.9 5.1 1.1 5.9 8.9 11.4 13 14.2 6.3 4.3 13.2 7.8 20.2 10.9-.1 0-.1 0 0 0zM380 439.2s-.1 0 0 0c-.5.2-1 .3-1.5.5-.5.1-.9.3-1.4.4-11.3 3.3-22.7 6-34.1 8.3-21.9 4.4-44.2 7.5-66.5 9-1 .1-2 .1-3 .2-1.1.1-2.2.1-3.3.2h-.1c7 1.5 14.4 3 21.5 4.2 20.7 3.6 41.9 6.1 63 5.5 7-.2 14.1-.7 21-2.4 4.5-1.1 9.5-2.7 12.9-6 1.1-1.1 2-2.4 2.4-4 .8-3.6-1.3-6.9-3.5-9.5-2.3-2.4-4.8-4.5-7.4-6.4z"/><path class="st2" d="M432.1 411c-.7 1.2-1.6 2.2-2.6 3.2-1.2 1.1-2.4 2.1-3.8 3-1.9 1.3-4.1 2.4-6.2 3.5-7.4 3.6-15.3 6-23.2 8-8.1 2.1-16.7 3.7-25.1 5-.3-.2-.6-.3-.8-.5-.2-.1-.5-.3-.7-.4l-3.7.5c-7.8 1-15.7 1.8-23.5 2.4-27.4 2.2-55 2.3-82.4.4-19-1.3-38.2-3.5-56.7-7.9 1.8-1.2 3.6-2.3 5.4-3.3 15.6-8.7 33.2-13.9 50.5-18.3 5-1.3 10-2.5 15.1-3.6l-2.3-.5c-19.2 4.3-38.6 9.7-56.5 18-4.6 2.1-9.2 4.5-13.4 7.4-.4.2-.7.5-1.1.7-.4.3-.7.5-1.1.8l-1.5 1.2c-.7.5-1.4 1.1-2 1.7-.3.2-.5.5-.8.7l-.8.8c-1.7 1.9-3.2 4-3.6 6.5-.6 3.6 1.7 6.5 4.5 8.5 4.5 3.2 10.2 4.7 15.6 5.9 18.5 4 37.9 3.9 56.7 3 .6 0 1.3-.1 1.9-.1 1.1-.1 2.2-.1 3.3-.2 1-.1 2-.1 3-.2 22.3-1.5 44.6-4.5 66.5-9 11.4-2.3 22.8-5 34.1-8.3.5-.1.9-.3 1.4-.4s1-.3 1.5-.4c8.1-2.4 16-5.3 23.8-8.5 6.6-2.8 13.3-5.9 19.3-10 3.7-2.5 7.8-5.7 9.7-9.9.4-1 .7-2 .8-3.1-.1 1.3-.6 2.4-1.3 3.4z"/></svg>