<svg xmlns="http://www.w3.org/2000/svg" viewBox="110.3 298.9 374.7 244.1"><path fill="#706F6F" d="M197 331.1c0-2.6-.7-3.3-2.9-3.5l-3.8-.2v-9H210v8.1h.1c3.4-6 9.7-9.7 18-9.7 11.9 0 18.3 6.5 18.3 20.1v31.6l6 .4v8.8h-26.2v-8.4l3.5-.4c2-.2 2.7-.9 2.7-3.4v-25.3c0-7.2-1.6-11.9-9.3-11.9-7.5 0-12.3 6.1-12.3 12.6v27.6l5.7.4v8.8h-26v-8.5l3.7-.4c2.2-.1 2.8-.9 2.8-3.4v-34.3zM306.5 333.4c0 16.8-14.3 21-34.3 20.3.6 7.9 4.5 14.7 14.7 14.7 6.8 0 11.9-2.8 14.8-4.8l4.1 9.8c-1.9 1.4-9.7 6-20.5 6-19.9 0-27.3-13-27.3-29.7 0-18.3 10.2-32.9 29.1-32.9 12 0 19.4 5.6 19.4 16.6zm-19.9-6.2c-9.4 0-13.5 8.8-14.4 16.5 1.6.1 3.2.1 4.7.1 10.2 0 17-2.6 17-9.7 0-4.9-2.9-6.9-7.3-6.9zM339.1 326.7c-5.2 0-9.3 2.1-9.3 7.1 0 5.5 5.2 7 11.7 8.8 8.7 2.6 17.9 5.4 17.9 17.4 0 12.4-9.2 19.3-23.7 19.3-7.7 0-16.3-1.8-20.3-3.9V360l10.7-.8v6c0 1.8.5 2.5 1.9 2.9 1.8.7 4.6 1.2 7 1.2 6.1 0 10.2-2.2 10.2-7.9s-4.4-6.8-11.4-8.6c-8.8-2.2-17.7-5.2-17.7-17.4 0-12.4 10.2-18.6 23.6-18.6 6.4 0 13.4 1.4 18 4.2v14l-10.5.9v-5.3c0-2-.4-2.7-1.8-3.2-1.9-.6-4.3-.7-6.3-.7zM366.7 319.4c8.1-1.3 11.1-7.5 13.2-14.5h7.7v13.4h15.3l-.7 10.2h-14.6v30.3c0 7.2 2.7 9.3 7.7 9.3 3.4 0 6.4-1.2 8.2-2.2l2.7 9.7c-3.3 2.1-8.8 3.8-14.5 3.8-17.4 0-18.1-10.4-18.1-19.9v-30.9h-8.1l1.2-9.2z"/><g fill="#FFED72"><path d="M115.8 453.3c0 .3.1.6.1.9 0-.3-.1-.6-.1-.9zM470.7 437.4c-7.4-5.4-16.3-8.7-25-11.5-27.9-9-57.6-12.8-86.7-15.2-37.4-3.1-75-3.2-112.4-.5-30 2.1-60.5 5.8-89.5 14.3-9.7 2.9-19.4 6.3-28 11.4-5.1 3-11 7.2-12.8 13.1-.4 1.5-.5 2.9-.4 4.3-.2-1.9.2-3.9 1.3-5.8 1-1.6 2.3-3 3.8-4.2.8-.6 1.6-1.1 2.4-1.6v.1c.3-.2.6-.4 1-.6l.6-.3c3.6-2 7.5-3.2 11.7-4.1 6.6-1.6 13.5-2.4 20.2-2.8 26.7-1.8 53.7 1 80 5 10.8 1.6 21.4 3.5 32.1 5.7.5.1 1 .2 1.6.3l1.5.3c20 4.2 39.8 9.3 59.2 15.5 21.4 6.8 43.1 14.5 62.8 25.6l-1.9.3 1.9-.3c.3.1.6.3.9.5.2.1.5.3.7.4.1.1.3.1.4.2 11.1-1.8 22.7-3.9 33.5-6.7 10.6-2.7 21.1-5.9 31-10.8 2.8-1.4 5.7-2.9 8.3-4.6h.1c1.8-1.2 3.5-2.5 5-3.9 1.3-1.3 2.5-2.7 3.5-4.2.9-1.4 1.5-2.9 1.8-4.4.1-.7.2-1.4.2-2.1.2-5.9-4.5-10.3-8.8-13.4z"/></g><path fill="#EC7423" d="M160.4 487.9s0-.1 0 0l1.1-1.1 1-1c.9-.8 1.8-1.6 2.7-2.3.7-.5 1.4-1.1 2-1.6.5-.4 1-.7 1.5-1 .5-.3 1-.7 1.5-1 5.7-3.9 11.8-7 18-9.8 24-11.2 49.8-18.3 75.6-24.1l3.1.6h-.2.2c15 3.1 29.9 6.8 44.7 10.9 24.8 7 49.6 15.3 72.7 26.9 1.7.9 3.4 1.7 5.1 2.6l4.9-.7c-19.8-11.1-41.4-18.8-62.8-25.6-19.4-6.1-39.2-11.3-59.2-15.5l-1.5-.3c-.5-.1-1-.2-1.6-.3-10.7-2.2-21.3-4.1-32.1-5.7-26.3-4-53.3-6.8-80-5-6.8.5-13.6 1.2-20.2 2.8-4.2.9-8.2 2.1-11.7 4.1l-.6.3c-1.2.6-2.3 1.3-3.4 2.1-1.5 1.2-2.9 2.5-3.8 4.2-1.3 2.3-1.6 4.5-1.2 6.8 1.4 7.9 11.9 15.3 17.4 19 8.2 5.7 17.4 10.4 26.8 14.7-.1 0-.1 0 0 0zM407.8 494.8c0 .1 0 .1 0 0-.7.2-1.4.4-2 .6s-1.3.4-1.9.5c-15.1 4.4-30.3 8-45.6 11.1-29.3 5.9-59.1 10.1-89 12-1.4.1-2.7.2-4 .3-1.5.1-2.9.1-4.4.2h-.2c9.4 2.1 19.3 4 28.7 5.6 27.7 4.8 56.1 8.2 84.3 7.4 9.4-.3 18.9-1 28-3.2 6-1.5 12.7-3.6 17.2-8 1.5-1.5 2.7-3.3 3.2-5.3 1-4.8-1.7-9.3-4.7-12.7-2.7-3.1-6-5.9-9.6-8.5z"/><path fill="#FDC914" d="M477.6 457.2c-1 1.5-2.2 2.9-3.5 4.2-1.5 1.5-3.2 2.8-5 3.9h-.1c-2.6 1.8-5.5 3.3-8.3 4.6-9.8 4.8-20.4 8.1-31 10.8-10.8 2.8-22.4 4.9-33.5 6.7-.4-.2-.8-.4-1.1-.6-.3-.2-.6-.4-.9-.5l-4.9.7c-10.5 1.4-21 2.4-31.4 3.2-36.6 2.9-73.6 3.1-110.2.5-25.4-1.8-51.1-4.6-75.9-10.6 2.4-1.6 4.8-3 7.3-4.4 20.9-11.6 44.5-18.6 67.5-24.5 6.7-1.7 13.4-3.3 20.2-4.8l-3.1-.6c-25.7 5.8-51.6 12.9-75.6 24.1-6.2 2.9-12.3 6-18 9.8-.5.3-1 .7-1.5 1-.5.4-1 .7-1.5 1-.7.5-1.4 1-2 1.6-.9.7-1.8 1.5-2.7 2.3-.4.3-.7.6-1 1l-1 1c-2.3 2.5-4.2 5.4-4.8 8.7-.8 4.9 2.3 8.7 6 11.4 6.1 4.3 13.7 6.3 20.9 7.9 24.7 5.4 50.7 5.2 75.8 4 .9 0 1.7-.1 2.6-.1 1.5-.1 2.9-.1 4.4-.2 1.4-.1 2.7-.2 4-.3 29.9-2 59.6-6.1 89-12 15.3-3.1 30.5-6.7 45.6-11.1.6-.2 1.3-.4 1.9-.5s1.3-.4 2-.6c10.8-3.3 21.4-7 31.8-11.4 8.9-3.7 17.8-7.9 25.8-13.4 5-3.4 10.4-7.6 13-13.3.6-1.3 1-2.7 1-4.1-.3 1.7-.9 3.2-1.8 4.6z"/></svg>