<?xml version="1.0" encoding="utf-8"?>
<!-- Generator: Adobe Illustrator 18.1.1, SVG Export Plug-In . SVG Version: 6.00 Build 0)  -->
<!DOCTYPE svg PUBLIC "-//W3C//DTD SVG 1.1//EN" "http://www.w3.org/Graphics/SVG/1.1/DTD/svg11.dtd">
<svg version="1.1" id="Calque_1" xmlns="http://www.w3.org/2000/svg" xmlns:xlink="http://www.w3.org/1999/xlink" x="0px" y="0px"
	 viewBox="0 358 595.3 125.9" enable-background="new 0 358 595.3 125.9" xml:space="preserve">
<text transform="matrix(1 0 0 1 348.5762 453.4437)" fill="#706F6F" font-family="'BreeSerif'" font-size="119.1854">n</text>
<text transform="matrix(1 0 0 1 416.3945 453.4437)" fill="#706F6F" font-family="'BreeSerif'" font-size="119.1854">e</text>
<text transform="matrix(1 0 0 1 473.8506 453.4437)" fill="#706F6F" font-family="'BreeSerif'" font-size="119.1854">s</text>
<text transform="matrix(1 0 0 1 527.6963 453.4437)" fill="#706F6F" font-family="'BreeSerif'" font-size="119.1854">t</text>
<g>
	<g>
		<path fill="#FFED72" d="M23.1,408.1c0,0.2,0.1,0.5,0.1,0.7C23.2,408.5,23.2,408.3,23.1,408.1z"/>
		<path fill="#FFED72" d="M288.4,396.2c-5.6-4-12.2-6.5-18.7-8.6c-20.8-6.8-43.1-9.6-64.8-11.4c-27.9-2.3-56.1-2.4-84-0.4
			c-22.5,1.6-45.2,4.3-66.9,10.7c-7.2,2.1-14.5,4.7-21,8.5c-3.8,2.3-8.2,5.4-9.6,9.8c-0.3,1.1-0.4,2.2-0.3,3.2
			c-0.1-1.4,0.2-2.9,1-4.4c0.7-1.2,1.7-2.2,2.8-3.1c0.6-0.4,1.2-0.8,1.8-1.2l0,0c0.2-0.1,0.5-0.3,0.7-0.4c0.1-0.1,0.3-0.1,0.4-0.2
			c2.7-1.5,5.6-2.4,8.8-3.1c4.9-1.2,10.1-1.8,15.1-2.1c19.9-1.3,40.1,0.7,59.8,3.8c8,1.2,16,2.6,24,4.3c0.4,0.1,0.8,0.2,1.2,0.2
			c0.4,0.1,0.8,0.2,1.2,0.2c15,3.2,29.8,7,44.3,11.6c16,5,32.2,10.8,47,19.1l-1.4,0.2l0,0l1.4-0.2c0.2,0.1,0.4,0.2,0.7,0.4
			c0.2,0.1,0.4,0.2,0.5,0.3l0,0c0.1,0.1,0.2,0.1,0.3,0.2c8.3-1.3,17-2.9,25.1-5c7.9-2,15.8-4.4,23.2-8c2.1-1,4.2-2.1,6.2-3.5l0,0
			l0,0c1.4-0.9,2.6-1.9,3.8-3l0,0c1-1,1.9-2,2.6-3.2c0.6-1.1,1.1-2.1,1.4-3.3l0,0l0,0c0.1-0.5,0.2-1.1,0.2-1.6
			C295.2,401.8,291.7,398.5,288.4,396.2z"/>
	</g>
	<g>
		<g>
			<path fill="#EC7423" d="M56.5,433.9L56.5,433.9c0.3-0.3,0.5-0.5,0.8-0.8c0.3-0.3,0.5-0.5,0.8-0.7c0.7-0.6,1.4-1.2,2-1.7
				c0.5-0.4,1-0.8,1.5-1.2c0.4-0.3,0.7-0.5,1.1-0.8c0.4-0.2,0.7-0.5,1.1-0.7c4.2-2.9,8.8-5.2,13.4-7.4c17.9-8.3,37.3-13.7,56.5-18
				l2.3,0.5h-0.1h0.2c11.2,2.3,22.4,5.1,33.4,8.1c18.6,5.2,37.1,11.5,54.4,20.1c1.3,0.6,2.5,1.3,3.8,2l0,0l0,0l3.6-0.5
				c-14.8-8.3-31-14.1-47-19.1c-14.5-4.6-29.3-8.4-44.3-11.6c-0.4-0.1-0.8-0.2-1.2-0.2c-0.4-0.1-0.8-0.2-1.2-0.2
				c-8-1.6-15.9-3.1-24-4.3c-19.7-3-39.9-5.1-59.8-3.8c-5,0.3-10.2,0.9-15.1,2.1c-3.1,0.6-6.1,1.6-8.8,3.1c-0.1,0.1-0.3,0.1-0.4,0.2
				c-0.9,0.5-1.7,1-2.5,1.6c-1.2,0.9-2.1,1.9-2.8,3.1c-1,1.7-1.2,3.4-0.9,5.1c1.1,5.9,8.9,11.4,13,14.2
				C42.6,427.3,49.5,430.8,56.5,433.9C56.4,433.9,56.4,433.9,56.5,433.9z"/>
		</g>
		<path fill="#EC7423" d="M241.5,439.2C241.5,439.2,241.4,439.2,241.5,439.2c-0.5,0.2-1,0.3-1.5,0.5c-0.5,0.1-0.9,0.3-1.4,0.4
			c-11.3,3.3-22.7,6-34.1,8.3c-21.9,4.4-44.2,7.5-66.5,9c-1,0.1-2,0.1-3,0.2c-1.1,0.1-2.2,0.1-3.3,0.2h-0.1c7,1.5,14.4,3,21.5,4.2
			c20.7,3.6,41.9,6.1,63,5.5c7-0.2,14.1-0.7,21-2.4c4.5-1.1,9.5-2.7,12.9-6c1.1-1.1,2-2.4,2.4-4c0.8-3.6-1.3-6.9-3.5-9.5
			C246.6,443.2,244.1,441.1,241.5,439.2z"/>
	</g>
	<path fill="#FDC914" d="M293.6,411c-0.7,1.2-1.6,2.2-2.6,3.2c-1.2,1.1-2.4,2.1-3.8,3l0,0l0,0c-1.9,1.3-4.1,2.4-6.2,3.5
		c-7.4,3.6-15.3,6-23.2,8c-8.1,2.1-16.7,3.7-25.1,5c-0.3-0.2-0.6-0.3-0.8-0.5c-0.2-0.1-0.5-0.3-0.7-0.4l-3.7,0.5l0,0
		c-7.8,1-15.7,1.8-23.5,2.4c-27.4,2.2-55,2.3-82.4,0.4c-19-1.3-38.2-3.5-56.7-7.9c1.8-1.2,3.6-2.3,5.4-3.3
		c15.6-8.7,33.2-13.9,50.5-18.3c5-1.3,10-2.5,15.1-3.6l-2.3-0.5c-19.2,4.3-38.6,9.7-56.5,18c-4.6,2.1-9.2,4.5-13.4,7.4
		c-0.4,0.2-0.7,0.5-1.1,0.7c-0.4,0.3-0.7,0.5-1.1,0.8c-0.5,0.4-1,0.8-1.5,1.2c-0.7,0.5-1.4,1.1-2,1.7c-0.3,0.2-0.5,0.5-0.8,0.7
		c-0.3,0.3-0.5,0.5-0.8,0.8c-1.7,1.9-3.2,4-3.6,6.5c-0.6,3.6,1.7,6.5,4.5,8.5c4.5,3.2,10.2,4.7,15.6,5.9c18.5,4,37.9,3.9,56.7,3
		c0.6,0,1.3-0.1,1.9-0.1c1.1-0.1,2.2-0.1,3.3-0.2c1-0.1,2-0.1,3-0.2c22.3-1.5,44.6-4.5,66.5-9c11.4-2.3,22.8-5,34.1-8.3
		c0.5-0.1,0.9-0.3,1.4-0.4c0.5-0.1,1-0.3,1.5-0.4c8.1-2.4,16-5.3,23.8-8.5c6.6-2.8,13.3-5.9,19.3-10c3.7-2.5,7.8-5.7,9.7-9.9
		c0.4-1,0.7-2,0.8-3.1C294.8,408.9,294.3,410,293.6,411z"/>
</g>
</svg>
