<?xml version="1.0" encoding="utf-8"?>
<!-- Generator: Adobe Illustrator 18.1.1, SVG Export Plug-In . SVG Version: 6.00 Build 0)  -->
<!DOCTYPE svg PUBLIC "-//W3C//DTD SVG 1.1//EN" "http://www.w3.org/Graphics/SVG/1.1/DTD/svg11.dtd">
<svg version="1.1" id="Calque_1" xmlns="http://www.w3.org/2000/svg" xmlns:xlink="http://www.w3.org/1999/xlink" x="0px" y="0px"
	 viewBox="110.3 298.9 374.7 244.1" enable-background="new 110.3 298.9 374.7 244.1" xml:space="preserve">
<g enable-background="new    ">
	<path fill="#706F6F" d="M197,331.1c0-2.6-0.7-3.3-2.9-3.5l-3.8-0.2v-9h19.7v8.1h0.1c3.4-6,9.7-9.7,18-9.7
		c11.9,0,18.3,6.5,18.3,20.1v31.6l6,0.4v8.8h-26.2v-8.4l3.5-0.4c2-0.2,2.7-0.9,2.7-3.4v-25.3c0-7.2-1.6-11.9-9.3-11.9
		c-7.5,0-12.3,6.1-12.3,12.6v27.6l5.7,0.4v8.8h-26v-8.5l3.7-0.4c2.2-0.1,2.8-0.9,2.8-3.4V331.1z"/>
</g>
<g enable-background="new    ">
	<path fill="#706F6F" d="M306.5,333.4c0,16.8-14.3,21-34.3,20.3c0.6,7.9,4.5,14.7,14.7,14.7c6.8,0,11.9-2.8,14.8-4.8l4.1,9.8
		c-1.9,1.4-9.7,6-20.5,6c-19.9,0-27.3-13-27.3-29.7c0-18.3,10.2-32.9,29.1-32.9C299.1,316.8,306.5,322.4,306.5,333.4z M286.6,327.2
		c-9.4,0-13.5,8.8-14.4,16.5c1.6,0.1,3.2,0.1,4.7,0.1c10.2,0,17-2.6,17-9.7C293.9,329.2,291,327.2,286.6,327.2z"/>
</g>
<g enable-background="new    ">
	<path fill="#706F6F" d="M339.1,326.7c-5.2,0-9.3,2.1-9.3,7.1c0,5.5,5.2,7,11.7,8.8c8.7,2.6,17.9,5.4,17.9,17.4
		c0,12.4-9.2,19.3-23.7,19.3c-7.7,0-16.3-1.8-20.3-3.9v-15.4l10.7-0.8v6c0,1.8,0.5,2.5,1.9,2.9c1.8,0.7,4.6,1.2,7,1.2
		c6.1,0,10.2-2.2,10.2-7.9c0-5.7-4.4-6.8-11.4-8.6c-8.8-2.2-17.7-5.2-17.7-17.4c0-12.4,10.2-18.6,23.6-18.6c6.4,0,13.4,1.4,18,4.2
		v14l-10.5,0.9v-5.3c0-2-0.4-2.7-1.8-3.2C343.5,326.8,341.1,326.7,339.1,326.7z"/>
</g>
<g enable-background="new    ">
	<path fill="#706F6F" d="M366.7,319.4c8.1-1.3,11.1-7.5,13.2-14.5h7.7v13.4h15.3l-0.7,10.2h-14.6v30.3c0,7.2,2.7,9.3,7.7,9.3
		c3.4,0,6.4-1.2,8.2-2.2l2.7,9.7c-3.3,2.1-8.8,3.8-14.5,3.8c-17.4,0-18.1-10.4-18.1-19.9v-30.9h-8.1L366.7,319.4z"/>
</g>
<g>
	<g>
		<path fill="#FFED72" d="M115.8,453.3c0,0.3,0.1,0.6,0.1,0.9C115.9,453.9,115.8,453.6,115.8,453.3z"/>
		<path fill="#FFED72" d="M470.7,437.4c-7.4-5.4-16.3-8.7-25-11.5c-27.9-9-57.6-12.8-86.7-15.2c-37.4-3.1-75-3.2-112.4-0.5
			c-30,2.1-60.5,5.8-89.5,14.3c-9.7,2.9-19.4,6.3-28,11.4c-5.1,3-11,7.2-12.8,13.1c-0.4,1.5-0.5,2.9-0.4,4.3
			c-0.2-1.9,0.2-3.9,1.3-5.8c1-1.6,2.3-3,3.8-4.2c0.8-0.6,1.6-1.1,2.4-1.6c0,0,0,0,0,0.1c0.3-0.2,0.6-0.4,1-0.6
			c0.2-0.1,0.4-0.2,0.6-0.3c3.6-2,7.5-3.2,11.7-4.1c6.6-1.6,13.5-2.4,20.2-2.8c26.7-1.8,53.7,1,80,5c10.8,1.6,21.4,3.5,32.1,5.7
			c0.5,0.1,1,0.2,1.6,0.3c0.5,0.1,1,0.2,1.5,0.3c20,4.2,39.8,9.3,59.2,15.5c21.4,6.8,43.1,14.5,62.8,25.6l-1.9,0.3l0,0l1.9-0.3
			c0.3,0.1,0.6,0.3,0.9,0.5c0.2,0.1,0.5,0.3,0.7,0.4c0,0,0,0,0,0c0.1,0.1,0.3,0.1,0.4,0.2c11.1-1.8,22.7-3.9,33.5-6.7
			c10.6-2.7,21.1-5.9,31-10.8c2.8-1.4,5.7-2.9,8.3-4.6c0,0,0,0,0.1,0c0,0,0,0,0,0c1.8-1.2,3.5-2.5,5-3.9c0,0,0,0,0,0
			c1.3-1.3,2.5-2.7,3.5-4.2c0.9-1.4,1.5-2.9,1.8-4.4c0,0,0,0,0,0c0,0,0,0,0,0c0.1-0.7,0.2-1.4,0.2-2.1
			C479.7,444.9,475,440.5,470.7,437.4z"/>
	</g>
	<g>
		<g>
			<path fill="#EC7423" d="M160.4,487.9C160.4,487.9,160.4,487.8,160.4,487.9c0.4-0.4,0.7-0.7,1.1-1.1c0.4-0.4,0.7-0.7,1-1
				c0.9-0.8,1.8-1.6,2.7-2.3c0.7-0.5,1.4-1.1,2-1.6c0.5-0.4,1-0.7,1.5-1c0.5-0.3,1-0.7,1.5-1c5.7-3.9,11.8-7,18-9.8
				c24-11.2,49.8-18.3,75.6-24.1l3.1,0.6c-0.1,0-0.1,0-0.2,0l0.2,0c15,3.1,29.9,6.8,44.7,10.9c24.8,7,49.6,15.3,72.7,26.9
				c1.7,0.9,3.4,1.7,5.1,2.6c0,0,0,0,0,0c0,0,0,0,0,0l4.9-0.7c-19.8-11.1-41.4-18.8-62.8-25.6c-19.4-6.1-39.2-11.3-59.2-15.5
				c-0.5-0.1-1-0.2-1.5-0.3c-0.5-0.1-1-0.2-1.6-0.3c-10.7-2.2-21.3-4.1-32.1-5.7c-26.3-4-53.3-6.8-80-5c-6.8,0.5-13.6,1.2-20.2,2.8
				c-4.2,0.9-8.2,2.1-11.7,4.1c-0.2,0.1-0.4,0.2-0.6,0.3c-1.2,0.6-2.3,1.3-3.4,2.1c-1.5,1.2-2.9,2.5-3.8,4.2
				c-1.3,2.3-1.6,4.5-1.2,6.8c1.4,7.9,11.9,15.3,17.4,19C141.8,478.9,151,483.6,160.4,487.9C160.3,487.9,160.3,487.9,160.4,487.9z"
				/>
		</g>
		<path fill="#EC7423" d="M407.8,494.8C407.8,494.9,407.8,494.9,407.8,494.8c-0.7,0.2-1.4,0.4-2,0.6s-1.3,0.4-1.9,0.5
			c-15.1,4.4-30.3,8-45.6,11.1c-29.3,5.9-59.1,10.1-89,12c-1.4,0.1-2.7,0.2-4,0.3c-1.5,0.1-2.9,0.1-4.4,0.2c-0.1,0-0.1,0-0.2,0
			c9.4,2.1,19.3,4,28.7,5.6c27.7,4.8,56.1,8.2,84.3,7.4c9.4-0.3,18.9-1,28-3.2c6-1.5,12.7-3.6,17.2-8c1.5-1.5,2.7-3.3,3.2-5.3
			c1-4.8-1.7-9.3-4.7-12.7C414.7,500.2,411.4,497.4,407.8,494.8z"/>
	</g>
	<path fill="#FDC914" d="M477.6,457.2c-1,1.5-2.2,2.9-3.5,4.2c-1.5,1.5-3.2,2.8-5,3.9c0,0,0,0,0,0c0,0,0,0-0.1,0
		c-2.6,1.8-5.5,3.3-8.3,4.6c-9.8,4.8-20.4,8.1-31,10.8c-10.8,2.8-22.4,4.9-33.5,6.7c-0.4-0.2-0.8-0.4-1.1-0.6
		c-0.3-0.2-0.6-0.4-0.9-0.5l-4.9,0.7c0,0,0,0,0,0c-10.5,1.4-21,2.4-31.4,3.2c-36.6,2.9-73.6,3.1-110.2,0.5
		c-25.4-1.8-51.1-4.6-75.9-10.6c2.4-1.6,4.8-3,7.3-4.4c20.9-11.6,44.5-18.6,67.5-24.5c6.7-1.7,13.4-3.3,20.2-4.8l-3.1-0.6
		c-25.7,5.8-51.6,12.9-75.6,24.1c-6.2,2.9-12.3,6-18,9.8c-0.5,0.3-1,0.7-1.5,1c-0.5,0.4-1,0.7-1.5,1c-0.7,0.5-1.4,1-2,1.6
		c-0.9,0.7-1.8,1.5-2.7,2.3c-0.4,0.3-0.7,0.6-1,1c-0.4,0.4-0.7,0.7-1,1c-2.3,2.5-4.2,5.4-4.8,8.7c-0.8,4.9,2.3,8.7,6,11.4
		c6.1,4.3,13.7,6.3,20.9,7.9c24.7,5.4,50.7,5.2,75.8,4c0.9,0,1.7-0.1,2.6-0.1c1.5-0.1,2.9-0.1,4.4-0.2c1.4-0.1,2.7-0.2,4-0.3
		c29.9-2,59.6-6.1,89-12c15.3-3.1,30.5-6.7,45.6-11.1c0.6-0.2,1.3-0.4,1.9-0.5s1.3-0.4,2-0.6c10.8-3.3,21.4-7,31.8-11.4
		c8.9-3.7,17.8-7.9,25.8-13.4c5-3.4,10.4-7.6,13-13.3c0.6-1.3,1-2.7,1-4.1C479.1,454.3,478.5,455.8,477.6,457.2z"/>
</g>
</svg>
